<svg viewBox="0 0 100 100" xmlns="http://www.w3.org/2000/svg">
  <defs>
    <linearGradient id="lampGradient" x1="0%" y1="0%" x2="100%" y2="100%">
      <stop offset="0%" style="stop-color:#fbbf24;stop-opacity:1" />
      <stop offset="100%" style="stop-color:#f59e0b;stop-opacity:1" />
    </linearGradient>
    <linearGradient id="smokeGradient" x1="0%" y1="100%" x2="0%" y2="0%">
      <stop offset="0%" style="stop-color:#a855f7;stop-opacity:0.8" />
      <stop offset="50%" style="stop-color:#8b5cf6;stop-opacity:0.4" />
      <stop offset="100%" style="stop-color:#6366f1;stop-opacity:0.1" />
    </linearGradient>
  </defs>
  
  <!-- Magical smoke -->
  <path d="M35 30 Q40 25 45 30 Q50 35 55 30 Q60 25 65 30 Q70 35 75 30" 
        stroke="url(#smokeGradient)" stroke-width="2" fill="none" opacity="0.7">
    <animate attributeName="d" 
             values="M35 30 Q40 25 45 30 Q50 35 55 30 Q60 25 65 30 Q70 35 75 30;
                     M35 28 Q40 23 45 28 Q50 33 55 28 Q60 23 65 28 Q70 33 75 28;
                     M35 30 Q40 25 45 30 Q50 35 55 30 Q60 25 65 30 Q70 35 75 30"
             dur="3s" repeatCount="indefinite"/>
  </path>
  
  <!-- Lamp body -->
  <ellipse cx="50" cy="65" rx="18" ry="12" fill="url(#lampGradient)" stroke="#d97706" stroke-width="1"/>
  
  <!-- Lamp spout -->
  <path d="M32 60 Q25 55 20 52 Q18 50 20 48 Q25 45 32 50" 
        fill="url(#lampGradient)" stroke="#d97706" stroke-width="1"/>
  
  <!-- Lamp handle -->
  <path d="M68 60 Q75 65 75 70 Q75 75 70 75 Q68 75 68 73" 
        fill="none" stroke="#d97706" stroke-width="2"/>
  
  <!-- Highlight -->
  <ellipse cx="45" cy="58" rx="6" ry="4" fill="#fde047" opacity="0.6"/>
  
  <!-- Base -->
  <ellipse cx="50" cy="77" rx="20" ry="3" fill="#92400e" opacity="0.3"/>
  
  <!-- Sparkles -->
  <circle cx="25" cy="35" r="1" fill="#fbbf24">
    <animate attributeName="opacity" values="0;1;0" dur="2s" repeatCount="indefinite"/>
  </circle>
  <circle cx="75" cy="40" r="1.5" fill="#a855f7">
    <animate attributeName="opacity" values="0;1;0" dur="1.5s" repeatCount="indefinite" begin="0.5s"/>
  </circle>
  <circle cx="80" cy="25" r="1" fill="#8b5cf6">
    <animate attributeName="opacity" values="0;1;0" dur="2.5s" repeatCount="indefinite" begin="1s"/>
  </circle>
</svg>